<mxfile host="app.diagrams.net" modified="2023-07-17T09:08:33.799Z" agent="Mozilla/5.0 (Windows NT 10.0; Win64; x64) AppleWebKit/537.36 (KHTML, like Gecko) Chrome/114.0.0.0 Safari/537.36" version="21.6.2" etag="YITU4kvAo96Iwo_Wras-" type="github">
  <diagram name="Page-1" id="0imecOBZGx9HlR_1ICtt">
    <mxGraphModel>
      <root>
        <mxCell id="0" />
        <mxCell id="1" parent="0" />
      </root>
    </mxGraphModel>
  </diagram>
</mxfile>
